<?xml version="1.0" standalone="no"?>
<!DOCTYPE svg PUBLIC "-//W3C//DTD SVG 20010904//EN"
        "http://www.w3.org/TR/2001/REC-SVG-20010904/DTD/svg10.dtd">
<svg version="1.0" xmlns="http://www.w3.org/2000/svg"
     width="1920.000000pt" height="1403.000000pt" viewBox="0 0 1920.000000 1403.000000"
     preserveAspectRatio="xMidYMid meet">
    <metadata>
        Created by potrace 1.16, written by Peter Selinger 2001-2019
    </metadata>
    <g transform="translate(0.000000,1403.000000) scale(0.100000,-0.100000)"
       fill="#000000" stroke="none">
        <path d="M0 11126 c0 -2314 3 -2906 13 -2910 9 -5 9 -7 -1 -12 -9 -4 -12 -650
-12 -3179 l0 -3173 30 11 c34 13 49 3 33 -21 -6 -10 -22 -16 -37 -15 l-26 2 0
-915 0 -914 6339 0 c5055 0 6340 3 6344 13 4 9 6 9 6 0 1 -10 570 -13 2810
-13 l2810 0 3 20 c4 26 24 25 21 -1 -3 -19 8 -19 432 -19 l435 0 0 2276 c0
1514 -3 2273 -10 2269 -5 -3 -10 -2 -10 4 0 5 4 13 10 16 7 4 10 1606 10 4736
l0 4729 -2178 0 c-1681 0 -2181 -3 -2190 -12 -9 -9 -12 -9 -12 0 0 17 -4556
17 -4577 1 -9 -8 -13 -8 -13 0 0 8 -1354 11 -5115 11 l-5115 0 0 -2904z
m11966 -5033 c4 -13 10 -20 15 -17 5 2 17 0 27 -5 13 -7 23 -6 31 2 10 9 11 6
5 -18 l-7 -30 22 19 c21 19 21 19 21 -7 0 -15 -4 -27 -10 -27 -5 0 -10 -4 -10
-10 0 -5 7 -6 17 -3 9 4 14 2 10 -3 -3 -6 -2 -16 4 -24 7 -12 9 -9 9 9 0 13 3
21 8 17 11 -11 9 -80 -3 -88 -5 -4 -20 -8 -33 -8 -13 0 -21 -4 -18 -9 3 -5 -1
-11 -9 -15 -8 -3 -20 -17 -27 -31 -6 -14 -17 -25 -23 -25 -7 0 -18 -6 -24 -14
-10 -12 -19 -13 -50 -7 -2 1 2 8 9 16 9 10 9 15 1 15 -6 0 -12 -4 -12 -10 -1
-5 -3 -14 -4 -20 -1 -5 -3 -13 -4 -17 0 -3 -9 3 -18 14 -18 20 -18 20 -38 1
-19 -18 -19 -19 -1 -12 14 5 17 4 12 -4 -10 -16 -21 -15 -43 6 -10 9 -12 13
-4 7 11 -7 13 -7 8 2 -5 7 0 25 9 40 16 27 16 28 -2 8 -20 -21 -73 -29 -75
-11 -1 6 -4 0 -8 -14 -9 -31 -41 -40 -41 -12 0 30 23 43 69 37 31 -4 41 -2 41
9 0 7 -9 16 -20 19 -22 6 -28 27 -7 27 8 0 14 7 14 15 0 8 -5 15 -11 15 -6 0
0 7 12 16 31 21 18 36 -25 28 -27 -5 -35 -4 -31 7 2 7 10 15 18 17 7 3 10 0 6
-7 -4 -6 -2 -11 4 -11 7 0 10 6 7 13 -8 22 12 57 33 57 16 0 20 5 16 18 -7 21
25 44 44 32 8 -5 10 -18 6 -36 -6 -27 -5 -28 9 -10 8 11 15 29 15 41 0 31 48
30 56 -2z m12 -324 c-14 -9 -3 -25 22 -32 13 -3 18 -1 13 5 -3 7 -1 8 6 4 7
-4 9 -17 6 -29 -5 -19 -5 -20 5 -4 6 9 16 17 21 17 6 0 8 -4 5 -9 -3 -4 6 -7
19 -5 16 1 25 -3 25 -12 0 -8 -6 -14 -13 -14 -8 0 -19 -10 -25 -22 l-11 -23 0
25 c-1 18 -4 21 -10 11 -5 -7 -6 -22 -4 -32 9 -32 -6 -69 -27 -69 -10 0 -22
-5 -25 -10 -8 -14 -25 -3 -25 16 0 9 -6 21 -13 29 -11 11 -16 10 -25 -6 -14
-23 -34 -26 -26 -4 4 8 2 15 -4 15 -5 0 -12 -7 -16 -15 -3 -8 -11 -15 -17 -15
-7 0 -3 10 9 23 26 28 27 35 5 39 -15 3 -14 6 7 26 14 13 32 21 40 19 11 -3
17 4 18 24 1 18 -3 29 -10 29 -7 0 0 11 17 24 20 16 32 20 37 13 4 -6 2 -14
-4 -18z m4465 -403 c-3 -5 -1 -6 5 -2 6 4 8 14 5 24 -5 14 -2 13 16 -4 21 -20
21 -54 -1 -54 -6 0 -7 8 -3 18 5 13 3 14 -6 5 -27 -27 33 -65 63 -39 7 6 4 1
-6 -11 -10 -13 -23 -20 -29 -16 -5 3 -7 1 -4 -4 6 -9 -17 -26 -27 -20 -1 1 -9
-3 -17 -10 -12 -10 -17 -8 -28 9 -11 18 -11 20 4 14 13 -5 11 0 -6 18 -13 13
-29 21 -38 18 -8 -3 -12 -1 -8 4 3 5 -3 10 -13 10 -14 0 -16 -4 -9 -13 13 -14
3 -33 -16 -33 -24 0 -27 19 -8 51 12 20 24 29 35 26 9 -3 18 -2 20 3 6 15 63
36 70 26 4 -6 4 -14 1 -20z m540 14 c-4 -16 -1 -20 13 -17 11 1 25 6 32 11 9
5 13 3 11 -5 -4 -36 0 -40 30 -25 28 15 28 15 40 -23 14 -49 14 -51 -5 -51
-12 0 -14 3 -6 13 8 10 2 12 -29 9 -25 -3 -39 -9 -39 -18 0 -8 -5 -14 -11 -14
-5 0 -7 5 -3 11 4 7 -1 7 -15 -1 -17 -9 -26 -9 -37 1 -8 6 -17 9 -21 5 -3 -3
-1 -6 5 -6 7 0 12 -5 12 -11 0 -6 -9 -8 -22 -3 -13 4 -32 8 -43 9 -35 4 -36 5
-31 14 3 5 -2 15 -11 22 -10 8 -14 9 -10 2 4 -6 3 -14 -3 -18 -5 -3 -10 -1
-10 4 0 6 -3 11 -8 11 -12 0 -64 -51 -58 -58 3 -3 17 7 31 22 28 30 35 24 8
-7 -10 -11 -12 -17 -5 -13 7 4 12 1 12 -9 0 -9 5 -13 10 -10 16 10 12 -11 -5
-25 -16 -13 -33 -6 -54 23 -12 17 -14 17 -32 1 -18 -16 -19 -16 -19 0 0 9 -4
15 -9 11 -5 -3 -13 0 -16 6 -5 7 -12 3 -22 -10 -8 -12 -11 -26 -8 -31 3 -6 -1
-10 -10 -10 -11 0 -15 5 -11 15 9 25 -2 17 -17 -12 -14 -26 -15 -26 -21 -5 -5
15 -14 21 -32 20 -13 -1 -24 -5 -24 -8 0 -3 -13 -5 -29 -5 -24 0 -27 3 -18 14
10 12 8 13 -10 9 -13 -4 -23 -2 -23 2 0 19 13 40 25 40 7 0 18 7 25 15 8 10
17 12 24 6 7 -6 17 -6 26 -1 20 13 33 12 25 0 -3 -6 1 -13 10 -16 12 -5 13 -9
4 -20 -10 -12 -9 -13 5 -8 9 3 16 10 16 14 0 5 11 7 25 5 26 -2 66 36 45 43
-6 2 -7 9 -4 15 3 7 -3 2 -13 -10 l-18 -23 1 40 c1 50 -10 51 -33 3 -15 -33
-18 -35 -21 -16 -4 24 16 68 25 59 4 -3 15 2 26 11 19 17 20 17 14 1 -4 -10
-2 -18 2 -18 5 0 11 5 13 12 2 6 12 12 21 14 9 1 15 -2 11 -7 -3 -5 -10 -7
-15 -4 -5 4 -9 1 -9 -6 0 -6 -8 -18 -17 -25 -17 -12 -16 -13 7 -15 14 0 37 0
53 1 16 1 27 -4 27 -12 0 -8 4 -7 11 5 5 9 17 17 25 17 9 0 12 -5 8 -12 -4 -7
-3 -8 5 -4 6 4 9 11 6 16 -11 17 30 21 44 3 11 -15 13 -15 8 -1 -3 9 0 19 9
22 10 4 13 1 9 -7 -4 -6 1 -3 9 7 16 20 16 20 17 0 0 -16 2 -15 11 6 10 22 12
22 15 7 5 -18 6 -18 19 2 19 27 34 27 27 1z m-663 -235 c0 -2 -9 -13 -21 -24
-24 -22 -18 -41 12 -41 11 0 18 4 14 10 -3 5 -13 6 -23 3 -26 -9 -11 2 27 20
27 14 31 14 21 1 -7 -8 -10 -17 -7 -20 3 -4 -4 -15 -16 -25 -14 -13 -17 -18
-7 -17 10 2 14 -4 12 -16 -3 -17 -1 -18 12 -7 8 7 13 18 10 25 -3 7 1 18 9 24
11 9 16 6 26 -15 10 -22 14 -24 22 -12 9 12 10 12 7 0 -7 -23 -26 -24 -33 -2
-3 12 -11 21 -17 21 -5 0 -8 -6 -5 -14 10 -24 -17 -49 -46 -44 -28 5 -53 -13
-42 -31 3 -6 -3 -21 -14 -33 -12 -12 -19 -24 -16 -26 3 -3 14 7 26 21 25 32
48 34 72 6 18 -20 18 -21 -5 -13 -42 13 -53 10 -51 -13 2 -15 -5 -27 -20 -34
-19 -11 -20 -10 -10 3 10 12 10 15 -2 15 -8 0 -12 -4 -9 -9 3 -4 -1 -8 -8 -9
-7 0 -3 -5 10 -11 26 -13 28 -24 6 -32 -12 -4 -15 -2 -10 9 3 8 1 15 -4 15 -6
0 -10 -5 -10 -11 0 -5 -4 -8 -10 -4 -6 3 -5 15 2 31 9 20 9 30 0 45 -7 11 -9
25 -5 32 4 7 -1 6 -11 -2 -16 -14 -17 -16 -1 -27 10 -8 12 -14 6 -19 -6 -3
-11 -1 -11 4 0 6 -6 11 -12 11 -7 0 -13 11 -13 24 0 13 5 22 11 19 15 -6 47
44 33 52 -7 5 -6 11 2 21 6 7 15 12 19 9 4 -2 5 8 2 23 -5 24 -4 26 11 13 14
-11 17 -11 17 0 0 7 10 23 22 36 21 23 28 27 28 18z"/>
    </g>
</svg>
