<svg width="96" height="96" xmlns="http://www.w3.org/2000/svg" xmlns:xlink="http://www.w3.org/1999/xlink" overflow="hidden"><defs><clipPath id="clip0"><rect x="0" y="0" width="96" height="96"/></clipPath><linearGradient x1="14.5001" y1="38.5001" x2="82.5001" y2="38.5001" gradientUnits="userSpaceOnUse" spreadMethod="reflect" id="fill1"><stop offset="0" stop-color="#B5D5A7"/><stop offset="0.5" stop-color="#AACE99"/><stop offset="1" stop-color="#9CCA86"/></linearGradient><linearGradient x1="14.5001" y1="58.5001" x2="82.5001" y2="58.5001" gradientUnits="userSpaceOnUse" spreadMethod="reflect" id="fill2"><stop offset="0" stop-color="#B5D5A7"/><stop offset="0.5" stop-color="#AACE99"/><stop offset="1" stop-color="#9CCA86"/></linearGradient></defs><g clip-path="url(#clip0)"><path d="M0 0 96 0 96 96 0 96Z" fill="#FFFFFF" fill-rule="evenodd"/><path d="M0 0 96 0 96 96 0 96Z" fill="#E6ECF0" fill-rule="evenodd"/><path d="M14.5001 58.5001 14.5001 44.5276 48.5001 18.5001 82.5001 44.5276 82.5001 58.5001 48.5001 32.4725Z" stroke="#70AD47" stroke-width="0.666667" stroke-miterlimit="8" fill="url(#fill1)" fill-rule="evenodd"/><path d="M14.5001 78.5001 14.5001 64.5276 48.5001 38.5001 82.5001 64.5276 82.5001 78.5001 48.5001 52.4725Z" stroke="#70AD47" stroke-width="0.666667" stroke-miterlimit="8" fill="url(#fill2)" fill-rule="evenodd"/><path d="M4.50005 19.167C4.50005 11.0667 11.0667 4.50005 19.167 4.50005L77.8331 4.50005C85.9334 4.50005 92.5001 11.0667 92.5001 19.167L92.5001 77.8331C92.5001 85.9334 85.9334 92.5001 77.8331 92.5001L19.167 92.5001C11.0667 92.5001 4.50005 85.9334 4.50005 77.8331Z" stroke="#70AD47" stroke-width="1.33333" stroke-miterlimit="8" fill="none" fill-rule="evenodd"/></g></svg>